<?xml version="1.0" encoding="UTF-8"?>
<svg xmlns="http://www.w3.org/2000/svg" viewBox="0 0 1400 2800" width="1400" height="2800">
  <defs>
    <style>
      .title { font: bold 20px sans-serif; fill: #1e293b; }
      .subtitle { font: bold 14px sans-serif; fill: #475569; }
      .label { font: 11px sans-serif; fill: #64748b; }
      .value { font: 12px sans-serif; fill: #1e293b; }
      .note { font: italic 11px sans-serif; fill: #94a3b8; }
      .header { font: bold 11px sans-serif; fill: #475569; text-transform: uppercase; }
      .tab-active { fill: #0284c7; }
      .tab-inactive { fill: #e2e8f0; }
      .tab-text-active { font: bold 12px sans-serif; fill: white; }
      .tab-text-inactive { font: 12px sans-serif; fill: #475569; }
      .btn-primary { fill: #0284c7; }
      .btn-text { font: bold 11px sans-serif; fill: white; }
      .btn-ghost { fill: none; stroke: #cbd5e1; stroke-width: 1; }
      .btn-ghost-text { font: 11px sans-serif; fill: #64748b; }
      .border { fill: none; stroke: #e2e8f0; stroke-width: 1; }
      .bg-white { fill: white; }
      .bg-light { fill: #f8fafc; }
      .bg-green { fill: #dcfce7; }
      .bg-yellow { fill: #fef9c3; }
      .bg-blue { fill: #dbeafe; }
      .bg-red { fill: #fee2e2; }
      .status-done { fill: #16a34a; }
      .status-progress { fill: #2563eb; }
      .status-todo { fill: #94a3b8; }
      .status-blocked { fill: #dc2626; }
      .divider { stroke: #e2e8f0; stroke-width: 1; }
      .section-bg { fill: #f1f5f9; rx: 8; }
    </style>
  </defs>

  <!-- Background -->
  <rect width="1400" height="2800" fill="#f8fafc"/>

  <!-- ========== PAGE TITLE ========== -->
  <text x="50" y="45" class="title">Initiative Detail &#x2014; Nov&#xe9; sekce: Miln&#xed;ky, KPI, Stakeholders</text>
  <text x="50" y="70" class="note">Wireframe pro nov&#xe9; z&#xe1;lo&#x17E;ky v detailu iniciativy + roz&#x161;&#xed;&#x159;en&#xed; Detaily tabu</text>

  <!-- ========== SECTION 1: DETAILY TAB ENHANCEMENT ========== -->
  <rect x="30" y="100" width="1340" height="520" rx="8" class="border" fill="white"/>
  <text x="50" y="130" class="subtitle">1. Detaily tab &#x2014; nov&#xe1; pole: problemStatement + successCriteria</text>
  <text x="50" y="150" class="note">P&#x159;idan&#xe1; pod pole Popis, p&#x159;ed Produkt/Asset. Oba jako textarea s labelem.</text>

  <!-- Tab bar mockup -->
  <rect x="50" y="170" width="80" height="32" rx="4" class="tab-active"/>
  <text x="70" y="191" class="tab-text-active">Detaily</text>
  <rect x="138" y="170" width="80" height="32" rx="4" class="tab-inactive"/>
  <text x="155" y="191" class="tab-text-inactive">Funkce</text>
  <rect x="226" y="170" width="80" height="32" rx="4" class="tab-inactive"/>
  <text x="234" y="191" class="tab-text-inactive">Miln&#xed;ky</text>
  <rect x="314" y="170" width="55" height="32" rx="4" class="tab-inactive"/>
  <text x="325" y="191" class="tab-text-inactive">KPI</text>
  <rect x="377" y="170" width="105" height="32" rx="4" class="tab-inactive"/>
  <text x="385" y="191" class="tab-text-inactive">Stakeholders</text>
  <rect x="490" y="170" width="90" height="32" rx="4" class="tab-inactive"/>
  <text x="498" y="191" class="tab-text-inactive">Po&#x17E;adavky</text>
  <text x="590" y="191" class="note">... dal&#x161;&#xed; st&#xe1;vaj&#xed;c&#xed; z&#xe1;lo&#x17E;ky</text>

  <!-- Form fields -->
  <text x="50" y="230" class="header">N&#xe1;zev</text>
  <rect x="50" y="238" width="620" height="32" rx="4" class="border" fill="white"/>
  <text x="60" y="259" class="value">Webov&#xe9; rozhran&#xed;</text>

  <text x="50" y="290" class="header">Popis</text>
  <rect x="50" y="298" width="620" height="50" rx="4" class="border" fill="white"/>
  <text x="60" y="318" class="value">Plnohodnotn&#xe1; webov&#xe1; aplikace umo&#x17E;&#x148;uj&#xed;c&#xed;...</text>

  <!-- NEW: Problem Statement -->
  <rect x="40" y="358" width="650" height="90" rx="6" fill="#eff6ff" stroke="#bfdbfe" stroke-width="1"/>
  <text x="55" y="378" style="font: bold 11px sans-serif; fill: #1d4ed8;">NOV&#xc9;</text>
  <text x="90" y="378" class="header">Definice probl&#xe9;mu</text>
  <rect x="55" y="386" width="620" height="50" rx="4" class="border" fill="white"/>
  <text x="65" y="406" class="value">Pacienti a l&#xe9;ka&#x159;i pot&#x159;ebuj&#xed; plnohodnotnou webovou</text>
  <text x="65" y="420" class="value">aplikaci dopl&#x148;uj&#xed;c&#xed; mobiln&#xed; app pro spr&#xe1;vu...</text>

  <!-- NEW: Success Criteria -->
  <rect x="40" y="456" width="650" height="90" rx="6" fill="#eff6ff" stroke="#bfdbfe" stroke-width="1"/>
  <text x="55" y="476" style="font: bold 11px sans-serif; fill: #1d4ed8;">NOV&#xc9;</text>
  <text x="90" y="476" class="header">Krit&#xe9;ria &#xfa;sp&#x11b;chu</text>
  <rect x="55" y="484" width="620" height="50" rx="4" class="border" fill="white"/>
  <text x="65" y="504" class="value">Pacienti mohou z webu &#x159;e&#x161;it v&#x161;e, co z mobiln&#xed;</text>
  <text x="65" y="518" class="value">aplikace. Roste po&#x10d;et konzultac&#xed; z desktopov&#xe9;ho...</text>

  <text x="50" y="575" class="header">Produkt / Asset</text>
  <text x="300" y="575" class="header">Dom&#xe9;na</text>
  <rect x="50" y="583" width="240" height="28" rx="4" class="border" fill="white"/>
  <rect x="300" y="583" width="240" height="28" rx="4" class="border" fill="white"/>
  <text x="60" y="602" class="value">Doctor Digital App</text>
  <text x="310" y="602" class="value">Klient</text>

  <!-- Design note -->
  <rect x="720" y="230" width="620" height="180" rx="8" fill="#fefce8" stroke="#fde68a"/>
  <text x="740" y="255" style="font: bold 12px sans-serif; fill: #92400e;">Implementa&#x10d;n&#xed; pozn&#xe1;mky</text>
  <text x="740" y="278" class="value">&#x2022; Oba nov&#xe1; pole jsou textarea (v&#xed;ce&#x159;&#xe1;dkov&#xe9;)</text>
  <text x="740" y="296" class="value">&#x2022; P&#x159;idat do InitiativeForm jako FormValue pole</text>
  <text x="740" y="314" class="value">&#x2022; Odeslat s updateInitiative jako sou&#x10d;&#xe1;st payload</text>
  <text x="740" y="332" class="value">&#x2022; Umist&#x11b;n&#xed;: pod Popis, p&#x159;ed Produkt/Asset</text>
  <text x="740" y="350" class="value">&#x2022; Vizueln&#x11b; odd&#x11b;lit jemn&#xfd;m modr&#xfd;m pozad&#xed;m</text>
  <text x="740" y="368" class="value">&#x2022; Label + textarea, stejn&#xfd; styl jako Popis</text>
  <text x="740" y="386" class="value">&#x2022; ReadOnly re&#x17E;im zachovat (disabled state)</text>


  <!-- ========== SECTION 2: MILESTONES TAB ========== -->
  <rect x="30" y="640" width="1340" height="700" rx="8" class="border" fill="white"/>
  <text x="50" y="670" class="subtitle">2. Miln&#xed;ky (Milestones) &#x2014; inline-editable grid</text>
  <text x="50" y="690" class="note">Nov&#xe1; z&#xe1;lo&#x17E;ka. Inline edit: klik na bu&#x148;ku p&#x159;ep&#xed;n&#xe1; do edit m&#xf3;du. Auto-save p&#x159;i blur nebo Enter.</text>

  <!-- Tab bar -->
  <rect x="50" y="710" width="80" height="32" rx="4" class="tab-inactive"/>
  <text x="70" y="731" class="tab-text-inactive">Detaily</text>
  <rect x="138" y="710" width="80" height="32" rx="4" class="tab-inactive"/>
  <text x="155" y="731" class="tab-text-inactive">Funkce</text>
  <rect x="226" y="710" width="80" height="32" rx="4" class="tab-active"/>
  <text x="240" y="731" class="tab-text-active">Miln&#xed;ky</text>

  <!-- Add row -->
  <rect x="50" y="760" width="450" height="32" rx="4" class="border" fill="white"/>
  <text x="62" y="781" class="note">Nov&#xfd; miln&#xed;k...</text>
  <rect x="508" y="760" width="75" height="32" rx="4" class="btn-primary"/>
  <text x="523" y="781" class="btn-text">P&#x159;idat</text>

  <!-- Grid header -->
  <rect x="50" y="808" width="1260" height="30" rx="0" fill="#f1f5f9"/>
  <text x="62" y="828" class="header">#</text>
  <text x="90" y="828" class="header">Miln&#xed;k</text>
  <text x="440" y="828" class="header">Status</text>
  <text x="590" y="828" class="header">C&#xed;lov&#xe9; datum</text>
  <text x="740" y="828" class="header">Vlastn&#xed;k</text>
  <text x="900" y="828" class="header">Popis</text>
  <text x="1220" y="828" class="header">Akce</text>

  <!-- Row 1 - DONE -->
  <rect x="50" y="840" width="1260" height="44" fill="white"/>
  <line x1="50" y1="884" x2="1310" y2="884" class="divider"/>
  <text x="62" y="867" class="value">1</text>
  <text x="90" y="867" class="value" style="font-weight: bold;">MVP web rozhran&#xed; nasazeno</text>
  <!-- Status badge -->
  <rect x="440" y="852" width="100" height="24" rx="12" class="bg-blue"/>
  <text x="458" y="869" style="font: bold 10px sans-serif; fill: #1d4ed8;">PROB&#xcd;H&#xc1;</text>
  <text x="590" y="867" class="value">2026-04-30</text>
  <text x="740" y="867" class="value">David</text>
  <text x="900" y="867" class="note">&#x2014;</text>
  <!-- Delete button -->
  <rect x="1220" y="852" width="60" height="24" rx="4" class="btn-ghost"/>
  <text x="1232" y="869" class="btn-ghost-text">Smazat</text>

  <!-- Row 2 - TODO -->
  <rect x="50" y="884" width="1260" height="44" fill="white"/>
  <line x1="50" y1="928" x2="1310" y2="928" class="divider"/>
  <text x="62" y="911" class="value">2</text>
  <text x="90" y="911" class="value" style="font-weight: bold;">Secure messaging integrace</text>
  <rect x="440" y="896" width="70" height="24" rx="12" fill="#f1f5f9"/>
  <text x="455" y="913" style="font: bold 10px sans-serif; fill: #64748b;">TODO</text>
  <text x="590" y="911" class="value">2026-06-15</text>
  <text x="740" y="911" class="value">Jitka</text>
  <text x="900" y="911" class="note">&#x2014;</text>
  <rect x="1220" y="896" width="60" height="24" rx="4" class="btn-ghost"/>
  <text x="1232" y="913" class="btn-ghost-text">Smazat</text>

  <!-- Row 3 - Inline edit example -->
  <rect x="50" y="928" width="1260" height="50" fill="#fffbeb" stroke="#fde68a" stroke-width="1"/>
  <text x="62" y="958" class="value">3</text>
  <rect x="90" y="938" width="340" height="30" rx="4" stroke="#0284c7" stroke-width="2" fill="white"/>
  <text x="100" y="958" style="font: 12px sans-serif; fill: #1e293b;">Editovan&#xfd; miln&#xed;k - kliknuto|</text>
  <rect x="440" y="938" width="130" height="30" rx="4" stroke="#0284c7" stroke-width="2" fill="white"/>
  <text x="450" y="958" class="value">IN_PROGRESS &#x25BE;</text>
  <rect x="590" y="938" width="130" height="30" rx="4" stroke="#0284c7" stroke-width="2" fill="white"/>
  <text x="600" y="958" class="value">2026-07-01</text>
  <rect x="740" y="938" width="140" height="30" rx="4" stroke="#0284c7" stroke-width="2" fill="white"/>
  <text x="750" y="958" class="value">David &#x25BE;</text>
  <text x="900" y="958" class="note">inline edit m&#xf3;d</text>
  <rect x="1220" y="940" width="60" height="24" rx="4" class="btn-ghost"/>
  <text x="1232" y="957" class="btn-ghost-text">Smazat</text>

  <!-- Arrow annotation -->
  <text x="50" y="1010" style="font: bold 11px sans-serif; fill: #0284c7;">&#x2191; Inline edit: klik na bu&#x148;ku &#x2192; input/select &#x2192; blur/Enter = auto-save</text>

  <!-- Design notes -->
  <rect x="50" y="1040" width="1260" height="280" rx="8" fill="#fefce8" stroke="#fde68a"/>
  <text x="70" y="1065" style="font: bold 12px sans-serif; fill: #92400e;">UX specifikace &#x2014; Miln&#xed;ky</text>

  <text x="70" y="1090" class="value">&#x2022; Grid s horizont&#xe1;ln&#xed;m layoutem, ka&#x17E;d&#xfd; &#x159;&#xe1;dek = 1 miln&#xed;k</text>
  <text x="70" y="1110" class="value">&#x2022; Klik na textovou bu&#x148;ku (n&#xe1;zev, popis) &#x2192; p&#x159;epne na input, modr&#xfd; border</text>
  <text x="70" y="1130" class="value">&#x2022; Klik na Status &#x2192; dropdown select (TODO, IN_PROGRESS, DONE, BLOCKED)</text>
  <text x="70" y="1150" class="value">&#x2022; Klik na Datum &#x2192; date input</text>
  <text x="70" y="1170" class="value">&#x2022; Klik na Vlastn&#xed;k &#x2192; select z users</text>
  <text x="70" y="1190" class="value">&#x2022; Blur nebo Enter = automatick&#xfd; save (PATCH)</text>
  <text x="70" y="1210" class="value">&#x2022; Escape = zru&#x161;it &#xfa;pravu</text>
  <text x="70" y="1230" class="value">&#x2022; Status badge barvy: TODO=&#x161;ed&#xe1;, IN_PROGRESS=modr&#xe1;, DONE=zelen&#xe1;, BLOCKED=&#x10d;erven&#xe1;</text>
  <text x="70" y="1250" class="value">&#x2022; P&#x159;idat &#x159;&#xe1;dek naho&#x159;e: text input + tla&#x10d;&#xed;tko P&#x159;idat (vytvo&#x159;&#xed; se s TODO statusem)</text>
  <text x="70" y="1270" class="value">&#x2022; Drag handle (vlevo) pro zm&#x11b;nu po&#x159;ad&#xed; &#x2014; nice to have, v1 bez n&#x11b;j</text>
  <text x="70" y="1290" class="value">&#x2022; Smazat tla&#x10d;&#xed;tko na ka&#x17E;d&#xe9;m &#x159;&#xe1;dku (ghost button)</text>
  <text x="70" y="1310" class="value">&#x2022; ReadOnly re&#x17E;im: &#x17E;&#xe1;dn&#xe9; klik akce, skryt&#xe9; smazat/p&#x159;idat</text>


  <!-- ========== SECTION 3: KPI TAB ========== -->
  <rect x="30" y="1360" width="1340" height="620" rx="8" class="border" fill="white"/>
  <text x="50" y="1390" class="subtitle">3. KPI &#x2014; inline-editable grid s progress barem</text>
  <text x="50" y="1410" class="note">Nov&#xe1; z&#xe1;lo&#x17E;ka. Ka&#x17E;d&#xe9; KPI: n&#xe1;zev, c&#xed;lov&#xe1; hodnota, aktu&#xe1;ln&#xed; hodnota, jednotka + vizualizace pokroku.</text>

  <!-- Tab bar -->
  <rect x="50" y="1430" width="80" height="32" rx="4" class="tab-inactive"/>
  <text x="70" y="1451" class="tab-text-inactive">Detaily</text>
  <rect x="138" y="1430" width="80" height="32" rx="4" class="tab-inactive"/>
  <text x="155" y="1451" class="tab-text-inactive">Miln&#xed;ky</text>
  <rect x="226" y="1430" width="55" height="32" rx="4" class="tab-active"/>
  <text x="238" y="1451" class="tab-text-active">KPI</text>

  <!-- Add row -->
  <rect x="50" y="1480" width="300" height="32" rx="4" class="border" fill="white"/>
  <text x="62" y="1501" class="note">Nov&#xe9; KPI...</text>
  <rect x="358" y="1480" width="75" height="32" rx="4" class="btn-primary"/>
  <text x="375" y="1501" class="btn-text">P&#x159;idat</text>

  <!-- Grid header -->
  <rect x="50" y="1528" width="1260" height="30" fill="#f1f5f9"/>
  <text x="62" y="1548" class="header">KPI</text>
  <text x="400" y="1548" class="header">C&#xed;l</text>
  <text x="530" y="1548" class="header">Aktu&#xe1;ln&#xed;</text>
  <text x="660" y="1548" class="header">Jednotka</text>
  <text x="800" y="1548" class="header">Pokrok</text>
  <text x="1220" y="1548" class="header">Akce</text>

  <!-- KPI Row 1 -->
  <rect x="50" y="1560" width="1260" height="50" fill="white"/>
  <line x1="50" y1="1610" x2="1310" y2="1610" class="divider"/>
  <text x="62" y="1590" class="value" style="font-weight: bold;">Po&#x10d;et konzultac&#xed; z webu m&#x11b;s&#xed;&#x10d;n&#x11b;</text>
  <text x="400" y="1590" class="value">200</text>
  <text x="530" y="1590" class="value">0</text>
  <text x="660" y="1590" class="value">konzultac&#xed;/m&#x11b;s&#xed;c</text>
  <!-- Progress bar 0% -->
  <rect x="800" y="1578" width="350" height="16" rx="8" fill="#f1f5f9"/>
  <rect x="800" y="1578" width="3" height="16" rx="8" fill="#dc2626"/>
  <text x="1160" y="1590" style="font: bold 10px sans-serif; fill: #64748b;">0%</text>
  <rect x="1220" y="1575" width="60" height="24" rx="4" class="btn-ghost"/>
  <text x="1232" y="1592" class="btn-ghost-text">Smazat</text>

  <!-- KPI Row 2 -->
  <rect x="50" y="1610" width="1260" height="50" fill="white"/>
  <line x1="50" y1="1660" x2="1310" y2="1660" class="divider"/>
  <text x="62" y="1640" class="value" style="font-weight: bold;">Pod&#xed;l webov&#xfd;ch u&#x17E;ivatel&#x16f;</text>
  <text x="400" y="1640" class="value">30</text>
  <text x="530" y="1640" class="value">0</text>
  <text x="660" y="1640" class="value">%</text>
  <!-- Progress bar 0% -->
  <rect x="800" y="1628" width="350" height="16" rx="8" fill="#f1f5f9"/>
  <rect x="800" y="1628" width="3" height="16" rx="8" fill="#dc2626"/>
  <text x="1160" y="1640" style="font: bold 10px sans-serif; fill: #64748b;">0%</text>
  <rect x="1220" y="1625" width="60" height="24" rx="4" class="btn-ghost"/>
  <text x="1232" y="1642" class="btn-ghost-text">Smazat</text>

  <!-- KPI Row 3 - inline edit example -->
  <rect x="50" y="1660" width="1260" height="50" fill="#fffbeb" stroke="#fde68a" stroke-width="1"/>
  <rect x="62" y="1670" width="320" height="30" rx="4" stroke="#0284c7" stroke-width="2" fill="white"/>
  <text x="72" y="1690" class="value">NPS sk&#xf3;re po konzultaci|</text>
  <rect x="400" y="1670" width="110" height="30" rx="4" stroke="#0284c7" stroke-width="2" fill="white"/>
  <text x="410" y="1690" class="value">90</text>
  <rect x="530" y="1670" width="110" height="30" rx="4" stroke="#0284c7" stroke-width="2" fill="white"/>
  <text x="540" y="1690" class="value">85.7</text>
  <rect x="660" y="1670" width="110" height="30" rx="4" stroke="#0284c7" stroke-width="2" fill="white"/>
  <text x="670" y="1690" class="value">%</text>
  <!-- Progress bar 95% -->
  <rect x="800" y="1678" width="350" height="16" rx="8" fill="#f1f5f9"/>
  <rect x="800" y="1678" width="333" height="16" rx="8" fill="#16a34a"/>
  <text x="1160" y="1690" style="font: bold 10px sans-serif; fill: #16a34a;">95%</text>

  <!-- Design notes -->
  <rect x="50" y="1730" width="1260" height="230" rx="8" fill="#fefce8" stroke="#fde68a"/>
  <text x="70" y="1755" style="font: bold 12px sans-serif; fill: #92400e;">UX specifikace &#x2014; KPI</text>
  <text x="70" y="1780" class="value">&#x2022; Grid: N&#xe1;zev | C&#xed;l | Aktu&#xe1;ln&#xed; | Jednotka | Progress bar | Smazat</text>
  <text x="70" y="1800" class="value">&#x2022; Progress bar: aktualni/cil * 100%, barva: 0-33% &#x10d;erven&#xe1;, 34-66% &#x17E;lut&#xe1;, 67-100% zelen&#xe1;</text>
  <text x="70" y="1820" class="value">&#x2022; Inline edit: klik na bu&#x148;ku &#x2192; input &#x2192; blur/Enter = save</text>
  <text x="70" y="1840" class="value">&#x2022; C&#xed;l a Aktu&#xe1;ln&#xed; jsou textov&#xe9; (ne v&#x17E;dy &#x10d;&#xed;sla &#x2014; nap&#x159;. "5 z 10")</text>
  <text x="70" y="1860" class="value">&#x2022; Progress bar se po&#x10d;&#xed;t&#xe1; jen pokud obojit parseable jako number</text>
  <text x="70" y="1880" class="value">&#x2022; P&#x159;idat: text input + tla&#x10d;&#xed;tko P&#x159;idat (vytvo&#x159;&#xed; pr&#xe1;zdn&#xe9; KPI s n&#xe1;zvem)</text>
  <text x="70" y="1900" class="value">&#x2022; Nov&#xe9; KPI se vytvo&#x159;&#xed; s pr&#xe1;zdn&#xfd;mi hodnotami &#x2014; u&#x17E;ivatel dopln&#xed; inline</text>
  <text x="70" y="1920" class="value">&#x2022; API: POST/PUT/DELETE na /api/milestones a /api/kpis a /api/stakeholders</text>
  <text x="70" y="1940" class="value">&#x2022; ReadOnly re&#x17E;im: bez edit akc&#xed;, skryt&#xe9; smazat/p&#x159;idat</text>


  <!-- ========== SECTION 4: STAKEHOLDERS TAB ========== -->
  <rect x="30" y="2000" width="1340" height="780" rx="8" class="border" fill="white"/>
  <text x="50" y="2030" class="subtitle">4. Stakeholders &#x2014; inline-editable grid</text>
  <text x="50" y="2050" class="note">Nov&#xe1; z&#xe1;lo&#x17E;ka. Ka&#x17E;d&#xfd; stakeholder: jm&#xe9;no, role, typ (intern&#xed;/extern&#xed;), organizace.</text>

  <!-- Tab bar -->
  <rect x="50" y="2070" width="80" height="32" rx="4" class="tab-inactive"/>
  <text x="70" y="2091" class="tab-text-inactive">Detaily</text>
  <rect x="138" y="2070" width="80" height="32" rx="4" class="tab-inactive"/>
  <text x="155" y="2091" class="tab-text-inactive">Miln&#xed;ky</text>
  <rect x="226" y="2070" width="55" height="32" rx="4" class="tab-inactive"/>
  <text x="238" y="2091" class="tab-text-inactive">KPI</text>
  <rect x="289" y="2070" width="105" height="32" rx="4" class="tab-active"/>
  <text x="300" y="2091" class="tab-text-active">Stakeholders</text>

  <!-- Add form - inline -->
  <rect x="50" y="2120" width="1260" height="48" rx="6" fill="#f8fafc" stroke="#e2e8f0"/>
  <rect x="62" y="2130" width="250" height="30" rx="4" class="border" fill="white"/>
  <text x="72" y="2150" class="note">Jm&#xe9;no...</text>
  <rect x="320" y="2130" width="200" height="30" rx="4" class="border" fill="white"/>
  <text x="330" y="2150" class="value">SPONSOR &#x25BE;</text>
  <rect x="528" y="2130" width="150" height="30" rx="4" class="border" fill="white"/>
  <text x="538" y="2150" class="value">INTERN&#xcd; &#x25BE;</text>
  <rect x="686" y="2130" width="200" height="30" rx="4" class="border" fill="white"/>
  <text x="696" y="2150" class="note">Organizace...</text>
  <rect x="894" y="2130" width="75" height="30" rx="4" class="btn-primary"/>
  <text x="910" y="2150" class="btn-text">P&#x159;idat</text>

  <!-- Grid header -->
  <rect x="50" y="2184" width="1260" height="30" fill="#f1f5f9"/>
  <text x="62" y="2204" class="header">Jm&#xe9;no</text>
  <text x="340" y="2204" class="header">Role</text>
  <text x="560" y="2204" class="header">Typ</text>
  <text x="740" y="2204" class="header">Organizace</text>
  <text x="1220" y="2204" class="header">Akce</text>

  <!-- Stakeholder Row 1 -->
  <rect x="50" y="2216" width="1260" height="44" fill="white"/>
  <line x1="50" y1="2260" x2="1310" y2="2260" class="divider"/>
  <text x="62" y="2243" class="value" style="font-weight: bold;">CEO</text>
  <!-- Role badge -->
  <rect x="340" y="2228" width="100" height="24" rx="12" fill="#dbeafe"/>
  <text x="358" y="2245" style="font: bold 10px sans-serif; fill: #1d4ed8;">SPONSOR</text>
  <!-- Type badge -->
  <rect x="560" y="2228" width="90" height="24" rx="12" fill="#dcfce7"/>
  <text x="573" y="2245" style="font: bold 10px sans-serif; fill: #16a34a;">INTERN&#xcd;</text>
  <text x="740" y="2243" class="note">&#x2014;</text>
  <rect x="1220" y="2228" width="60" height="24" rx="4" class="btn-ghost"/>
  <text x="1232" y="2245" class="btn-ghost-text">Smazat</text>

  <!-- Stakeholder Row 2 -->
  <rect x="50" y="2260" width="1260" height="44" fill="white"/>
  <line x1="50" y1="2304" x2="1310" y2="2304" class="divider"/>
  <text x="62" y="2287" class="value" style="font-weight: bold;">UX t&#xfd;m</text>
  <rect x="340" y="2272" width="100" height="24" rx="12" fill="#e0e7ff"/>
  <text x="352" y="2289" style="font: bold 10px sans-serif; fill: #4338ca;">REVIEWER</text>
  <rect x="560" y="2272" width="90" height="24" rx="12" fill="#dcfce7"/>
  <text x="573" y="2289" style="font: bold 10px sans-serif; fill: #16a34a;">INTERN&#xcd;</text>
  <text x="740" y="2287" class="note">&#x2014;</text>
  <rect x="1220" y="2272" width="60" height="24" rx="4" class="btn-ghost"/>
  <text x="1232" y="2289" class="btn-ghost-text">Smazat</text>

  <!-- Stakeholder Row 3 -->
  <rect x="50" y="2304" width="1260" height="44" fill="white"/>
  <line x1="50" y1="2348" x2="1310" y2="2348" class="divider"/>
  <text x="62" y="2331" class="value" style="font-weight: bold;">OZP</text>
  <rect x="340" y="2316" width="140" height="24" rx="12" fill="#fef3c7"/>
  <text x="352" y="2333" style="font: bold 10px sans-serif; fill: #92400e;">DECISION_MAKER</text>
  <rect x="560" y="2316" width="90" height="24" rx="12" fill="#fee2e2"/>
  <text x="570" y="2333" style="font: bold 10px sans-serif; fill: #dc2626;">EXTERN&#xcd;</text>
  <text x="740" y="2331" class="value">OZP poji&#x161;&#x165;ovna</text>
  <rect x="1220" y="2316" width="60" height="24" rx="4" class="btn-ghost"/>
  <text x="1232" y="2333" class="btn-ghost-text">Smazat</text>

  <!-- Inline edit example row -->
  <rect x="50" y="2348" width="1260" height="50" fill="#fffbeb" stroke="#fde68a" stroke-width="1"/>
  <rect x="62" y="2358" width="260" height="30" rx="4" stroke="#0284c7" stroke-width="2" fill="white"/>
  <text x="72" y="2378" class="value">Pr&#xe1;vn&#xed; kancel&#xe1;&#x159;|</text>
  <rect x="340" y="2358" width="200" height="30" rx="4" stroke="#0284c7" stroke-width="2" fill="white"/>
  <text x="350" y="2378" class="value">LEGAL &#x25BE;</text>
  <rect x="560" y="2358" width="160" height="30" rx="4" stroke="#0284c7" stroke-width="2" fill="white"/>
  <text x="570" y="2378" class="value">EXTERN&#xcd; &#x25BE;</text>
  <rect x="740" y="2358" width="200" height="30" rx="4" stroke="#0284c7" stroke-width="2" fill="white"/>
  <text x="750" y="2378" class="value">PRK Partners</text>

  <!-- Design notes -->
  <rect x="50" y="2420" width="1260" height="340" rx="8" fill="#fefce8" stroke="#fde68a"/>
  <text x="70" y="2445" style="font: bold 12px sans-serif; fill: #92400e;">UX specifikace &#x2014; Stakeholders</text>
  <text x="70" y="2470" class="value">&#x2022; Grid: Jm&#xe9;no | Role | Typ | Organizace | Smazat</text>
  <text x="70" y="2490" class="value">&#x2022; Role badge barvy: DECISION_MAKER=&#x17E;lut&#xe1;, SPONSOR=modr&#xe1;, REVIEWER=indigo,</text>
  <text x="82" y="2510" class="value">  AMBASSADOR=zelen&#xe1;, LEGAL=&#x161;ed&#xe1;, MEDICAL=r&#x16f;&#x17E;ov&#xe1;</text>
  <text x="70" y="2530" class="value">&#x2022; Typ badge: INTERNAL=zelen&#xe1;, EXTERNAL=&#x10d;erven&#xe1;</text>
  <text x="70" y="2550" class="value">&#x2022; P&#x159;idat form nad gridem: Jm&#xe9;no (text) + Role (select) + Typ (select) + Organizace (text) + tla&#x10d;&#xed;tko</text>
  <text x="70" y="2570" class="value">&#x2022; Inline edit: klik na bu&#x148;ku &#x2192; edit mode &#x2192; blur/Enter = auto-save</text>
  <text x="70" y="2590" class="value">&#x2022; Select options pro Role: DECISION_MAKER, SPONSOR, REVIEWER, AMBASSADOR, LEGAL, MEDICAL</text>
  <text x="70" y="2610" class="value">&#x2022; Select options pro Typ: INTERNAL, EXTERNAL</text>
  <text x="70" y="2630" class="value">&#x2022; Organizace je voliteln&#xe1; (hlavn&#x11b; pro extern&#xed; stakeholdery)</text>
  <text x="70" y="2650" class="value">&#x2022; P&#x159;id&#xe1;v&#xe1;n&#xed;: v&#x161;echna pole v jednom &#x159;&#xe1;dku, minim&#xe1;ln&#x11b; jm&#xe9;no povinn&#xe9;</text>
  <text x="70" y="2670" class="value">&#x2022; API: CRUD na /api/stakeholders/:initiativeId</text>
  <text x="70" y="2690" class="value">&#x2022; ReadOnly re&#x17E;im: bez edit akc&#xed;, skryt&#xe9; smazat/p&#x159;idat</text>
  <text x="70" y="2710" class="value">&#x2022; Mobiln&#xed; verze: ka&#x17E;d&#xfd; stakeholder jako karta (ne grid &#x159;&#xe1;dek)</text>
  <text x="70" y="2730" class="value">&#x2022; Inline edit na mobilu: klikni na kartu &#x2192; expand do edit form</text>

</svg>
