<?xml version="1.0" encoding="UTF-8"?>
<svg xmlns="http://www.w3.org/2000/svg" viewBox="0 0 1400 2200" font-family="Inter, system-ui, sans-serif">
  <defs>
    <style>
      .title { font-size: 22px; font-weight: 700; fill: #1e293b; }
      .subtitle { font-size: 14px; fill: #64748b; }
      .section-title { font-size: 18px; font-weight: 700; fill: #1e293b; }
      .label { font-size: 12px; font-weight: 600; fill: #64748b; text-transform: uppercase; letter-spacing: 0.05em; }
      .cell-text { font-size: 13px; fill: #334155; }
      .cell-bold { font-size: 13px; font-weight: 600; fill: #1e293b; }
      .small { font-size: 11px; fill: #94a3b8; }
      .note { font-size: 11px; fill: #0369a1; font-style: italic; }
      .filter-bg { fill: #f8fafc; stroke: #e2e8f0; stroke-width: 1; rx: 8; }
      .card-bg { fill: #ffffff; stroke: #e2e8f0; stroke-width: 1; rx: 8; }
      .header-bg { fill: #f1f5f9; }
      .row-bg { fill: #ffffff; }
      .row-hover { fill: #f8fafc; }
      .border { stroke: #e2e8f0; stroke-width: 1; }
      .green-badge { fill: #dcfce7; rx: 10; }
      .green-text { font-size: 11px; font-weight: 600; fill: #16a34a; }
      .yellow-badge { fill: #fef9c3; rx: 10; }
      .yellow-text { font-size: 11px; font-weight: 600; fill: #ca8a04; }
      .red-badge { fill: #fee2e2; rx: 10; }
      .red-text { font-size: 11px; font-weight: 600; fill: #dc2626; }
      .blue-badge { fill: #dbeafe; rx: 10; }
      .blue-text { font-size: 11px; font-weight: 600; fill: #2563eb; }
      .slate-badge { fill: #f1f5f9; rx: 10; }
      .slate-badge-text { font-size: 11px; font-weight: 600; fill: #64748b; }
      .progress-track { fill: #e2e8f0; rx: 4; }
      .progress-green { fill: #22c55e; rx: 4; }
      .progress-yellow { fill: #eab308; rx: 4; }
      .progress-red { fill: #ef4444; rx: 4; }
      .kpi-card { fill: #ffffff; stroke: #e2e8f0; stroke-width: 1.5; rx: 12; }
      .kpi-value { font-size: 28px; font-weight: 700; fill: #1e293b; }
      .kpi-label { font-size: 12px; fill: #64748b; }
      .kpi-delta-up { font-size: 13px; font-weight: 600; fill: #16a34a; }
      .kpi-delta-down { font-size: 13px; font-weight: 600; fill: #dc2626; }
      .divider { stroke: #e2e8f0; stroke-width: 1; }
      .editable-hint { fill: #dbeafe; stroke: #93c5fd; stroke-width: 1; stroke-dasharray: 3 3; rx: 3; }
    </style>
  </defs>

  <!-- =========================================== -->
  <!-- PAGE 1: KPI DASHBOARD                       -->
  <!-- =========================================== -->

  <text x="40" y="40" class="title">1. KPI Dashboard &#x2014; P&#x159;ehledy / Insights</text>
  <text x="40" y="62" class="subtitle">Cross-initiative KPI monitoring with inline editing. Route: /kpi-dashboard</text>

  <!-- Filter bar -->
  <rect x="40" y="85" width="1320" height="50" class="filter-bg"/>
  <text x="60" y="116" class="label">Dom&#x11B;na</text>
  <rect x="130" y="97" width="150" height="28" rx="4" fill="#fff" stroke="#cbd5e1"/>
  <text x="140" y="116" class="cell-text">V&#x161;e</text>

  <text x="310" y="116" class="label">Vlastn&#x0ED;k</text>
  <rect x="385" y="97" width="150" height="28" rx="4" fill="#fff" stroke="#cbd5e1"/>
  <text x="395" y="116" class="cell-text">V&#x161;e</text>

  <text x="565" y="116" class="label">Stav KPI</text>
  <rect x="640" y="97" width="150" height="28" rx="4" fill="#fff" stroke="#cbd5e1"/>
  <text x="650" y="116" class="cell-text">V&#x161;e</text>

  <text x="830" y="116" class="label">Hledat</text>
  <rect x="890" y="97" width="200" height="28" rx="4" fill="#fff" stroke="#cbd5e1"/>
  <text x="900" y="116" class="small">Hledat KPI...</text>

  <!-- Summary cards row -->
  <text x="40" y="170" class="section-title">Souhrn</text>

  <!-- Card 1: Total KPIs -->
  <rect x="40" y="185" width="210" height="100" class="kpi-card"/>
  <text x="60" y="218" class="kpi-label">Celkem KPI</text>
  <text x="60" y="258" class="kpi-value">34</text>

  <!-- Card 2: On Track -->
  <rect x="270" y="185" width="210" height="100" class="kpi-card" style="stroke: #22c55e;"/>
  <text x="290" y="218" class="kpi-label">Na cest&#x11B; (&#x2265;67%)</text>
  <text x="290" y="258" class="kpi-value" style="fill: #16a34a;">18</text>
  <text x="340" y="258" class="kpi-delta-up">53%</text>

  <!-- Card 3: At Risk -->
  <rect x="500" y="185" width="210" height="100" class="kpi-card" style="stroke: #eab308;"/>
  <text x="520" y="218" class="kpi-label">Riziko (34&#x2013;66%)</text>
  <text x="520" y="258" class="kpi-value" style="fill: #ca8a04;">10</text>
  <text x="560" y="258" class="kpi-delta-down">29%</text>

  <!-- Card 4: Off Track -->
  <rect x="730" y="185" width="210" height="100" class="kpi-card" style="stroke: #ef4444;"/>
  <text x="750" y="218" class="kpi-label">Mimo (&lt;34%)</text>
  <text x="750" y="258" class="kpi-value" style="fill: #dc2626;">6</text>
  <text x="790" y="258" class="kpi-delta-down">18%</text>

  <!-- Card 5: No Data -->
  <rect x="960" y="185" width="210" height="100" class="kpi-card"/>
  <text x="980" y="218" class="kpi-label">Bez dat</text>
  <text x="980" y="258" class="kpi-value" style="fill: #94a3b8;">0</text>

  <!-- KPI Table -->
  <text x="40" y="325" class="section-title">V&#x161;echna KPI</text>
  <text x="170" y="325" class="note">&#x2190; Klikn&#x11B;te na bu&#x148;ku pro inline &#x0FA;pravu. Zm&#x11B;na se ulo&#x17E;&#x0ED; automaticky.</text>

  <rect x="40" y="340" width="1320" height="36" class="header-bg"/>
  <text x="60" y="364" class="label">Iniciativa</text>
  <text x="310" y="364" class="label">Dom&#x11B;na</text>
  <text x="440" y="364" class="label">KPI</text>
  <text x="660" y="364" class="label">C&#x0ED;l</text>
  <text x="760" y="364" class="label">Aktu&#x00E1;ln&#x0ED;</text>
  <text x="860" y="364" class="label">Jednotka</text>
  <text x="980" y="364" class="label">Pokrok</text>
  <text x="1200" y="364" class="label">Stav</text>

  <!-- Row 1 -->
  <line x1="40" y1="376" x2="1360" y2="376" class="divider"/>
  <rect x="40" y="376" width="1320" height="42" class="row-bg"/>
  <text x="60" y="402" class="cell-bold">Webov&#x00E9; rozhran&#x0ED;</text>
  <rect x="310" y="388" width="70" height="22" rx="4" fill="#e0e7ff"/>
  <text x="320" y="403" style="font-size: 11px; fill: #4338ca; font-weight: 600;">Klient</text>
  <text x="440" y="402" class="cell-text">Po&#x10D;et konzultac&#x0ED; z webu</text>
  <!-- Editable cells with blue dashed border hint -->
  <rect x="655" y="388" width="60" height="22" class="editable-hint"/>
  <text x="665" y="403" class="cell-bold">200</text>
  <rect x="755" y="388" width="60" height="22" class="editable-hint"/>
  <text x="765" y="403" class="cell-bold">0</text>
  <rect x="855" y="388" width="90" height="22" class="editable-hint"/>
  <text x="862" y="403" class="cell-text">konzultac&#x0ED;/m</text>
  <!-- Progress bar -->
  <rect x="980" y="394" width="160" height="8" class="progress-track"/>
  <rect x="980" y="394" width="0" height="8" class="progress-red"/>
  <text x="1150" y="403" class="small">0%</text>
  <rect x="1200" y="388" width="65" height="22" class="red-badge"/>
  <text x="1212" y="403" class="red-text">Mimo</text>

  <!-- Row 2 -->
  <line x1="40" y1="418" x2="1360" y2="418" class="divider"/>
  <rect x="40" y="418" width="1320" height="42" class="row-hover"/>
  <text x="60" y="444" class="cell-bold">Webov&#x00E9; rozhran&#x0ED;</text>
  <rect x="310" y="430" width="70" height="22" rx="4" fill="#e0e7ff"/>
  <text x="320" y="445" style="font-size: 11px; fill: #4338ca; font-weight: 600;">Klient</text>
  <text x="440" y="444" class="cell-text">Pod&#x0ED;l webov&#x00FD;ch u&#x017E;ivatel&#x016F;</text>
  <rect x="655" y="430" width="60" height="22" class="editable-hint"/>
  <text x="665" y="445" class="cell-bold">30</text>
  <rect x="755" y="430" width="60" height="22" class="editable-hint"/>
  <text x="765" y="445" class="cell-bold">0</text>
  <rect x="855" y="430" width="90" height="22" class="editable-hint"/>
  <text x="862" y="445" class="cell-text">%</text>
  <rect x="980" y="436" width="160" height="8" class="progress-track"/>
  <rect x="980" y="436" width="0" height="8" class="progress-red"/>
  <text x="1150" y="445" class="small">0%</text>
  <rect x="1200" y="430" width="65" height="22" class="red-badge"/>
  <text x="1212" y="445" class="red-text">Mimo</text>

  <!-- Row 3 -->
  <line x1="40" y1="460" x2="1360" y2="460" class="divider"/>
  <rect x="40" y="460" width="1320" height="42" class="row-bg"/>
  <text x="60" y="486" class="cell-bold">B2G2C (kraje)</text>
  <rect x="310" y="472" width="70" height="22" rx="4" fill="#fce7f3"/>
  <text x="318" y="487" style="font-size: 11px; fill: #be185d; font-weight: 600;">Tr&#x017E;by</text>
  <text x="440" y="486" class="cell-text">Po&#x10D;et zapojen&#x00FD;ch kraj&#x016F;</text>
  <rect x="655" y="472" width="60" height="22" class="editable-hint"/>
  <text x="665" y="487" class="cell-bold">5</text>
  <rect x="755" y="472" width="60" height="22" class="editable-hint"/>
  <text x="765" y="487" class="cell-bold">2</text>
  <rect x="855" y="472" width="90" height="22" class="editable-hint"/>
  <text x="862" y="487" class="cell-text">kraj&#x016F;</text>
  <rect x="980" y="478" width="160" height="8" class="progress-track"/>
  <rect x="980" y="478" width="64" height="8" class="progress-yellow"/>
  <text x="1150" y="487" class="small">40%</text>
  <rect x="1200" y="472" width="65" height="22" class="yellow-badge"/>
  <text x="1208" y="487" class="yellow-text">Riziko</text>

  <!-- Row 4 -->
  <line x1="40" y1="502" x2="1360" y2="502" class="divider"/>
  <rect x="40" y="502" width="1320" height="42" class="row-hover"/>
  <text x="60" y="528" class="cell-bold">&#x00DA;hrady z poji&#x161;&#x165;oven</text>
  <rect x="310" y="514" width="70" height="22" rx="4" fill="#fce7f3"/>
  <text x="318" y="529" style="font-size: 11px; fill: #be185d; font-weight: 600;">Tr&#x017E;by</text>
  <text x="440" y="528" class="cell-text">Po&#x10D;et nasmlouvan&#x00FD;ch v&#x00FD;kon&#x016F;</text>
  <rect x="655" y="514" width="60" height="22" class="editable-hint"/>
  <text x="665" y="529" class="cell-bold">50</text>
  <rect x="755" y="514" width="60" height="22" class="editable-hint"/>
  <text x="765" y="529" class="cell-bold">40</text>
  <rect x="855" y="514" width="90" height="22" class="editable-hint"/>
  <text x="862" y="529" class="cell-text">v&#x00FD;kon&#x016F;</text>
  <rect x="980" y="520" width="160" height="8" class="progress-track"/>
  <rect x="980" y="520" width="128" height="8" class="progress-green"/>
  <text x="1150" y="529" class="small">80%</text>
  <rect x="1200" y="514" width="80" height="22" class="green-badge"/>
  <text x="1210" y="529" class="green-text">Na cest&#x11B;</text>

  <!-- More rows indicator -->
  <line x1="40" y1="544" x2="1360" y2="544" class="divider"/>
  <text x="660" y="570" class="small" text-anchor="middle">... dal&#x161;&#x0ED; KPI ...</text>

  <!-- UX Notes -->
  <rect x="40" y="600" width="1320" height="130" rx="8" fill="#eff6ff" stroke="#bfdbfe"/>
  <text x="60" y="625" class="section-title" style="fill: #1d4ed8;">UX pozn&#x00E1;mky &#x2014; KPI Dashboard</text>
  <text x="60" y="650" class="cell-text">&#x2022; Sloupce C&#x0ED;l, Aktu&#x00E1;ln&#x0ED;, Jednotka jsou inline-editovateln&#x00E9; (klik = edit, blur/Enter = ulo&#x017E;it, Esc = zru&#x161;it)</text>
  <text x="60" y="670" class="cell-text">&#x2022; Stav (Na cest&#x11B; / Riziko / Mimo) je automaticky kalkulov&#x00E1;n z pokroku: &#x2265;67% zelen&#x00E1;, 34-66% &#x017E;lut&#x00E1;, &lt;34% &#x10D;erven&#x00E1;</text>
  <text x="60" y="690" class="cell-text">&#x2022; Summary karty naho&#x159;e se po&#x10D;&#x0ED;taj&#x0ED; dynamicky z viditeln&#x00FD;ch (filtrovan&#x00FD;ch) KPI</text>
  <text x="60" y="710" class="cell-text">&#x2022; Klik na n&#x00E1;zev iniciativy otev&#x159;e detail panel (stejn&#x00E9; chov&#x00E1;n&#x0ED; jako v dom&#x00E9;nov&#x00E9; n&#x00E1;st&#x11B;nce)</text>
  <text x="60" y="730" class="cell-text" style="fill: #0369a1;">&#x2022; Filtry: Dom&#x00E9;na, Vlastn&#x0ED;k, Stav KPI (Na cest&#x11B;/Riziko/Mimo/V&#x161;e), Fulltextov&#x00E9; hled&#x00E1;n&#x0ED;</text>


  <!-- =========================================== -->
  <!-- PAGE 2: MILESTONES TIMELINE                 -->
  <!-- =========================================== -->

  <line x1="0" y1="780" x2="1400" y2="780" stroke="#94a3b8" stroke-width="2" stroke-dasharray="8 4"/>

  <text x="40" y="830" class="title">2. Miln&#x0ED;ky / Milestones Timeline &#x2014; Pl&#x00E1;nov&#x00E1;n&#x0ED;</text>
  <text x="40" y="852" class="subtitle">Cross-initiative milestone tracking with inline editing and status management. Route: /milestones</text>

  <!-- Filter bar -->
  <rect x="40" y="875" width="1320" height="50" class="filter-bg"/>
  <text x="60" y="906" class="label">Dom&#x11B;na</text>
  <rect x="130" y="887" width="150" height="28" rx="4" fill="#fff" stroke="#cbd5e1"/>
  <text x="140" y="906" class="cell-text">V&#x161;e</text>

  <text x="310" y="906" class="label">Vlastn&#x0ED;k</text>
  <rect x="385" y="887" width="150" height="28" rx="4" fill="#fff" stroke="#cbd5e1"/>
  <text x="395" y="906" class="cell-text">V&#x161;e</text>

  <text x="565" y="906" class="label">Status</text>
  <rect x="620" y="887" width="150" height="28" rx="4" fill="#fff" stroke="#cbd5e1"/>
  <text x="630" y="906" class="cell-text">V&#x161;e</text>

  <text x="800" y="906" class="label">Obdob&#x0ED;</text>
  <rect x="860" y="887" width="150" height="28" rx="4" fill="#fff" stroke="#cbd5e1"/>
  <text x="870" y="906" class="cell-text">Tento m&#x11B;s&#x0ED;c</text>

  <text x="1040" y="906" class="label">Hledat</text>
  <rect x="1100" y="887" width="200" height="28" rx="4" fill="#fff" stroke="#cbd5e1"/>
  <text x="1110" y="906" class="small">Hledat miln&#x0ED;k...</text>

  <!-- Summary cards -->
  <text x="40" y="960" class="section-title">Souhrn</text>

  <rect x="40" y="975" width="210" height="100" class="kpi-card"/>
  <text x="60" y="1008" class="kpi-label">Celkem miln&#x0ED;k&#x016F;</text>
  <text x="60" y="1048" class="kpi-value">26</text>

  <rect x="270" y="975" width="210" height="100" class="kpi-card" style="stroke: #22c55e;"/>
  <text x="290" y="1008" class="kpi-label">Hotovo</text>
  <text x="290" y="1048" class="kpi-value" style="fill: #16a34a;">4</text>

  <rect x="500" y="975" width="210" height="100" class="kpi-card" style="stroke: #3b82f6;"/>
  <text x="520" y="1008" class="kpi-label">Prob&#x0ED;h&#x00E1;</text>
  <text x="520" y="1048" class="kpi-value" style="fill: #2563eb;">10</text>

  <rect x="730" y="975" width="210" height="100" class="kpi-card"/>
  <text x="750" y="1008" class="kpi-label">TODO</text>
  <text x="750" y="1048" class="kpi-value" style="fill: #64748b;">8</text>

  <rect x="960" y="975" width="210" height="100" class="kpi-card" style="stroke: #ef4444;"/>
  <text x="980" y="1008" class="kpi-label">Blokov&#x00E1;no</text>
  <text x="980" y="1048" class="kpi-value" style="fill: #dc2626;">2</text>

  <rect x="1190" y="975" width="170" height="100" class="kpi-card" style="stroke: #f97316;"/>
  <text x="1210" y="1008" class="kpi-label">Po term&#x0ED;nu</text>
  <text x="1210" y="1048" class="kpi-value" style="fill: #ea580c;">3</text>

  <!-- Milestone Table -->
  <text x="40" y="1115" class="section-title">V&#x161;echny miln&#x0ED;ky</text>
  <text x="200" y="1115" class="note">&#x2190; Inline editace: status, datum, vlastn&#x0ED;k, popis</text>

  <rect x="40" y="1130" width="1320" height="36" class="header-bg"/>
  <text x="60" y="1154" class="label">Iniciativa</text>
  <text x="280" y="1154" class="label">Dom&#x11B;na</text>
  <text x="390" y="1154" class="label">Miln&#x0ED;k</text>
  <text x="640" y="1154" class="label">Status</text>
  <text x="780" y="1154" class="label">C&#x0ED;lov&#x00E9; datum</text>
  <text x="930" y="1154" class="label">Vlastn&#x0ED;k</text>
  <text x="1100" y="1154" class="label">Zpo&#x017E;d&#x11B;n&#x0ED;</text>
  <text x="1250" y="1154" class="label">Akce</text>

  <!-- Row 1 - overdue -->
  <line x1="40" y1="1166" x2="1360" y2="1166" class="divider"/>
  <rect x="40" y="1166" width="1320" height="42" fill="#fef2f2"/>
  <text x="60" y="1192" class="cell-bold">B2G2C (kraje)</text>
  <rect x="280" y="1178" width="70" height="22" rx="4" fill="#fce7f3"/>
  <text x="288" y="1193" style="font-size: 11px; fill: #be185d; font-weight: 600;">Tr&#x017E;by</text>
  <text x="390" y="1192" class="cell-text">Pilot s prvn&#x0ED;m krajem</text>
  <!-- Editable status -->
  <rect x="635" y="1178" width="100" height="22" class="editable-hint"/>
  <rect x="638" y="1180" width="94" height="18" class="blue-badge"/>
  <text x="652" y="1193" class="blue-text">Prob&#x0ED;h&#x00E1;</text>
  <!-- Editable date -->
  <rect x="775" y="1178" width="110" height="22" class="editable-hint"/>
  <text x="785" y="1193" class="cell-text" style="fill: #dc2626; font-weight: 600;">2026-02-28</text>
  <!-- Editable owner -->
  <rect x="925" y="1178" width="130" height="22" class="editable-hint"/>
  <text x="935" y="1193" class="cell-text">Adela Hlouskova</text>
  <!-- Delay indicator -->
  <text x="1100" y="1192" style="font-size: 12px; fill: #dc2626; font-weight: 700;">5 dn&#x0ED;</text>
  <!-- Action -->
  <text x="1250" y="1192" class="cell-text" style="fill: #dc2626; cursor: pointer;">Smazat</text>

  <!-- Row 2 -->
  <line x1="40" y1="1208" x2="1360" y2="1208" class="divider"/>
  <rect x="40" y="1208" width="1320" height="42" class="row-bg"/>
  <text x="60" y="1234" class="cell-bold">Webov&#x00E9; rozhran&#x0ED;</text>
  <rect x="280" y="1220" width="70" height="22" rx="4" fill="#e0e7ff"/>
  <text x="290" y="1235" style="font-size: 11px; fill: #4338ca; font-weight: 600;">Klient</text>
  <text x="390" y="1234" class="cell-text">MVP web rozhran&#x0ED; nasazeno</text>
  <rect x="635" y="1220" width="100" height="22" class="editable-hint"/>
  <rect x="638" y="1222" width="94" height="18" class="blue-badge"/>
  <text x="652" y="1235" class="blue-text">Prob&#x0ED;h&#x00E1;</text>
  <rect x="775" y="1220" width="110" height="22" class="editable-hint"/>
  <text x="785" y="1235" class="cell-text">2026-04-30</text>
  <rect x="925" y="1220" width="130" height="22" class="editable-hint"/>
  <text x="935" y="1235" class="cell-text">David</text>
  <text x="1100" y="1234" class="small">&#x2014;</text>
  <text x="1250" y="1234" class="cell-text" style="fill: #dc2626; cursor: pointer;">Smazat</text>

  <!-- Row 3 -->
  <line x1="40" y1="1250" x2="1360" y2="1250" class="divider"/>
  <rect x="40" y="1250" width="1320" height="42" class="row-hover"/>
  <text x="60" y="1276" class="cell-bold">Webov&#x00E9; rozhran&#x0ED;</text>
  <rect x="280" y="1262" width="70" height="22" rx="4" fill="#e0e7ff"/>
  <text x="290" y="1277" style="font-size: 11px; fill: #4338ca; font-weight: 600;">Klient</text>
  <text x="390" y="1276" class="cell-text">Secure messaging integrace</text>
  <rect x="635" y="1262" width="100" height="22" class="editable-hint"/>
  <rect x="638" y="1264" width="94" height="18" class="slate-badge"/>
  <text x="660" y="1277" class="slate-badge-text">TODO</text>
  <rect x="775" y="1262" width="110" height="22" class="editable-hint"/>
  <text x="785" y="1277" class="cell-text">2026-06-15</text>
  <rect x="925" y="1262" width="130" height="22" class="editable-hint"/>
  <text x="935" y="1277" class="cell-text">Jitka Pekarkova</text>
  <text x="1100" y="1276" class="small">&#x2014;</text>
  <text x="1250" y="1276" class="cell-text" style="fill: #dc2626; cursor: pointer;">Smazat</text>

  <!-- Row 4 - done -->
  <line x1="40" y1="1292" x2="1360" y2="1292" class="divider"/>
  <rect x="40" y="1292" width="1320" height="42" class="row-bg"/>
  <text x="60" y="1318" class="cell-bold">&#x00DA;hrady z poji&#x161;&#x165;oven</text>
  <rect x="280" y="1304" width="70" height="22" rx="4" fill="#fce7f3"/>
  <text x="288" y="1319" style="font-size: 11px; fill: #be185d; font-weight: 600;">Tr&#x017E;by</text>
  <text x="390" y="1318" class="cell-text">Smlouva s VZP podeps&#x00E1;na</text>
  <rect x="635" y="1304" width="100" height="22" class="editable-hint"/>
  <rect x="638" y="1306" width="94" height="18" class="green-badge"/>
  <text x="658" y="1319" class="green-text">Hotovo</text>
  <rect x="775" y="1304" width="110" height="22" class="editable-hint"/>
  <text x="785" y="1319" class="cell-text" style="text-decoration: line-through;">2026-03-01</text>
  <rect x="925" y="1304" width="130" height="22" class="editable-hint"/>
  <text x="935" y="1319" class="cell-text">Ondrej Svoboda</text>
  <text x="1100" y="1318" class="small">&#x2014;</text>
  <text x="1250" y="1318" class="cell-text" style="fill: #dc2626; cursor: pointer;">Smazat</text>

  <!-- More rows -->
  <line x1="40" y1="1334" x2="1360" y2="1334" class="divider"/>
  <text x="660" y="1360" class="small" text-anchor="middle">... dal&#x161;&#x0ED; miln&#x0ED;ky ...</text>

  <!-- UX Notes -->
  <rect x="40" y="1390" width="1320" height="170" rx="8" fill="#eff6ff" stroke="#bfdbfe"/>
  <text x="60" y="1415" class="section-title" style="fill: #1d4ed8;">UX pozn&#x00E1;mky &#x2014; Milestones Timeline</text>
  <text x="60" y="1440" class="cell-text">&#x2022; Status, C&#x0ED;lov&#x00E9; datum, Vlastn&#x0ED;k jsou inline-editovateln&#x00E9; (stejn&#x00FD; pattern jako KPI dashboard)</text>
  <text x="60" y="1460" class="cell-text">&#x2022; &#x0158;&#x00E1;dky po term&#x0ED;nu (overdue) maj&#x0ED; &#x10D;erven&#x00E9; pozad&#x0ED; (#fef2f2) a sloupec Zpo&#x017E;d&#x11B;n&#x0ED; ukazuje po&#x10D;et dn&#x0ED;</text>
  <text x="60" y="1480" class="cell-text">&#x2022; Filtr Obdob&#x0ED;: Tento t&#x00FD;den / Tento m&#x11B;s&#x0ED;c / Tento kvart&#x00E1;l / V&#x161;e / Po term&#x0ED;nu</text>
  <text x="60" y="1500" class="cell-text">&#x2022; Klik na n&#x00E1;zev iniciativy otev&#x159;e detail panel</text>
  <text x="60" y="1520" class="cell-text">&#x2022; Summary karty po&#x10D;&#x0ED;taj&#x0ED; dynamicky z viditeln&#x00FD;ch dat</text>
  <text x="60" y="1540" class="cell-text" style="fill: #0369a1;">&#x2022; &#x0158;azen&#x0ED;: V&#x00FD;choz&#x0ED; = po term&#x0ED;nu naho&#x159;e, pak podle c&#x0ED;lov&#x00E9;ho data vzestupn&#x11B;</text>

</svg>
