<?xml version="1.0" encoding="UTF-8"?>
<svg xmlns="http://www.w3.org/2000/svg" width="1800" height="1660" viewBox="0 0 1800 1660">
  <defs>
    <style>
      .bg { fill: #f8fafc; }
      .page { fill: #ffffff; stroke: #cbd5e1; stroke-width: 2; rx: 18; ry: 18; }
      .panel { fill: #ffffff; stroke: #94a3b8; stroke-width: 1.5; rx: 14; ry: 14; }
      .panel-soft { fill: #f8fafc; stroke: #cbd5e1; stroke-width: 1; rx: 10; ry: 10; }
      .title { font-family: Arial, sans-serif; font-size: 26px; font-weight: 700; fill: #0f172a; }
      .section { font-family: Arial, sans-serif; font-size: 20px; font-weight: 700; fill: #0f172a; }
      .label { font-family: Arial, sans-serif; font-size: 14px; font-weight: 700; fill: #334155; }
      .text { font-family: Arial, sans-serif; font-size: 13px; fill: #334155; }
      .small { font-family: Arial, sans-serif; font-size: 12px; fill: #475569; }
      .tiny { font-family: Arial, sans-serif; font-size: 11px; fill: #64748b; }
      .muted { fill: #64748b; }
      .accent { fill: #0ea5e9; }
      .good { fill: #16a34a; }
      .warn { fill: #d97706; }
      .danger { fill: #dc2626; }
      .chip { fill: #e2e8f0; stroke: #cbd5e1; stroke-width: 1; rx: 12; ry: 12; }
      .chip-accent { fill: #e0f2fe; stroke: #7dd3fc; stroke-width: 1; rx: 12; ry: 12; }
      .chip-good { fill: #dcfce7; stroke: #86efac; stroke-width: 1; rx: 12; ry: 12; }
      .chip-warn { fill: #fef3c7; stroke: #fcd34d; stroke-width: 1; rx: 12; ry: 12; }
      .button { fill: #ffffff; stroke: #94a3b8; stroke-width: 1.2; rx: 8; ry: 8; }
      .button-primary { fill: #0f172a; stroke: #0f172a; stroke-width: 1.2; rx: 8; ry: 8; }
      .input { fill: #ffffff; stroke: #cbd5e1; stroke-width: 1.2; rx: 8; ry: 8; }
      .table-head { fill: #f1f5f9; stroke: #cbd5e1; stroke-width: 1; }
      .row { fill: #ffffff; stroke: #e2e8f0; stroke-width: 1; }
      .column { fill: #f8fafc; stroke: #cbd5e1; stroke-width: 1.5; rx: 12; ry: 12; }
      .card { fill: #ffffff; stroke: #cbd5e1; stroke-width: 1.2; rx: 10; ry: 10; }
      .card-alert { fill: #fff7ed; stroke: #fdba74; stroke-width: 1.2; rx: 10; ry: 10; }
      .note { fill: #fff7ed; stroke: #fdba74; stroke-width: 1.2; rx: 12; ry: 12; }
      .connector { stroke: #94a3b8; stroke-width: 2; fill: none; marker-end: url(#arrow); }
      .divider { stroke: #e2e8f0; stroke-width: 1; }
    </style>
    <marker id="arrow" markerWidth="10" markerHeight="10" refX="9" refY="5" orient="auto" markerUnits="strokeWidth">
      <path d="M 0 0 L 10 5 L 0 10 z" fill="#94a3b8" />
    </marker>
  </defs>

  <rect class="bg" x="0" y="0" width="1800" height="1660" />
  <text x="60" y="60" class="title">Products &amp; Systems / Execution Boards / Board Settings</text>
  <text x="60" y="88" class="text">Wireframes for replacing the global Requirements Kanban with Product/System-owned execution boards and column-to-status mapping.</text>

  <rect class="note" x="1340" y="32" width="400" height="90" />
  <text x="1360" y="58" class="label">Naming decision in scope</text>
  <text x="1360" y="80" class="small">Top-level planning objects are Products and Systems.</text>
  <text x="1360" y="98" class="small">Current "Product / Asset Explorer" label should become "Products &amp; Systems".</text>

  <rect class="page" x="50" y="130" width="820" height="680" />
  <text x="75" y="165" class="section">Panel A. Products &amp; Systems Explorer</text>
  <text x="75" y="188" class="small">Changed existing screen. Board entry point lives on the top-level row.</text>

  <rect class="input" x="74" y="210" width="160" height="34" />
  <text x="90" y="232" class="text">Status filter</text>
  <rect class="input" x="246" y="210" width="160" height="34" />
  <text x="262" y="232" class="text">Impact filter</text>
  <rect class="input" x="418" y="210" width="180" height="34" />
  <text x="434" y="232" class="text">Label mode</text>
  <rect class="input" x="610" y="210" width="220" height="34" />
  <text x="626" y="232" class="text">Quick search</text>

  <rect class="table-head" x="74" y="266" width="772" height="42" />
  <text x="92" y="292" class="label">Name</text>
  <text x="460" y="292" class="label">Type</text>
  <text x="538" y="292" class="label">Board</text>
  <text x="655" y="292" class="label">PM Status</text>
  <text x="760" y="292" class="label">Actions</text>

  <rect class="row" x="74" y="308" width="772" height="126" />
  <text x="92" y="336" class="label">Mobile App</text>
  <text x="92" y="356" class="small">14 initiatives / 42 requirements</text>
  <rect class="chip-accent" x="452" y="320" width="64" height="24" />
  <text x="470" y="336" class="tiny">Product</text>
  <rect class="chip-good" x="530" y="320" width="74" height="24" />
  <text x="548" y="336" class="tiny">Trello</text>
  <rect class="chip-good" x="610" y="320" width="88" height="24" />
  <text x="631" y="336" class="tiny">Healthy</text>
  <text x="530" y="363" class="tiny">Board: Delivery team</text>
  <text x="530" y="381" class="tiny">Columns: Backlog, Dev, QA, Blocked, Done</text>
  <rect class="chip" x="648" y="355" width="66" height="22" />
  <text x="667" y="370" class="tiny">Todo 9</text>
  <rect class="chip" x="720" y="355" width="82" height="22" />
  <text x="739" y="370" class="tiny">In prog 24</text>
  <rect class="chip" x="648" y="383" width="72" height="22" />
  <text x="669" y="398" class="tiny">Done 9</text>
  <rect class="button-primary" x="742" y="320" width="84" height="28" />
  <text x="761" y="338" class="tiny" fill="#ffffff">Open board</text>
  <rect class="button" x="742" y="358" width="84" height="28" />
  <text x="751" y="376" class="tiny">Board settings</text>
  <rect class="button" x="742" y="396" width="84" height="28" />
  <text x="767" y="414" class="tiny">Open tree</text>
  <line class="divider" x1="92" y1="394" x2="724" y2="394" />
  <text x="92" y="416" class="tiny">Visible on row: provider, health, aggregate PM statuses, and board entry actions.</text>

  <rect class="row" x="74" y="442" width="772" height="112" />
  <text x="92" y="470" class="label">Email Platform</text>
  <text x="92" y="490" class="small">System / configuration-heavy / support-led</text>
  <rect class="chip-warn" x="452" y="454" width="64" height="24" />
  <text x="471" y="470" class="tiny">System</text>
  <rect class="chip" x="530" y="454" width="74" height="24" />
  <text x="547" y="470" class="tiny">No board</text>
  <text x="530" y="497" class="tiny">No execution board configured yet.</text>
  <text x="530" y="515" class="tiny">Requirements can still exist in the tree.</text>
  <rect class="button-primary" x="712" y="454" width="114" height="28" />
  <text x="728" y="472" class="tiny" fill="#ffffff">Create board</text>
  <rect class="button" x="712" y="492" width="114" height="28" />
  <text x="732" y="510" class="tiny">Open tree</text>

  <rect class="note" x="74" y="572" width="772" height="210" />
  <text x="94" y="600" class="label">Explorer wireframe notes</text>
  <text x="94" y="624" class="small">1. Existing product rows become Product/System rows, not a separate screen for Systems.</text>
  <text x="94" y="644" class="small">2. Board state is visible before entering the board: provider, health, and PM status totals.</text>
  <text x="94" y="664" class="small">3. Empty state for "no board" is first-class. Do not force board creation before tree-based planning starts.</text>
  <text x="94" y="684" class="small">4. "Open board" is the new primary action. "Open tree" keeps the existing planning hierarchy accessible.</text>
  <text x="94" y="704" class="small">5. Progress metric should move toward PM status counts, not only the current isDone requirement count.</text>
  <text x="94" y="724" class="small">6. Future enhancement: if multiple boards exist, row shows default board plus a small "2 boards" link.</text>

  <rect class="page" x="910" y="130" width="840" height="870" />
  <text x="935" y="165" class="section">Panel B. Execution Board</text>
  <text x="935" y="188" class="small">New screen replacing the current global Requirements Kanban.</text>

  <rect class="panel-soft" x="934" y="210" width="792" height="94" />
  <text x="956" y="238" class="label">System: Email Platform</text>
  <text x="956" y="258" class="small">Board: Operations / Support workflow</text>
  <rect class="chip-warn" x="1130" y="222" width="70" height="24" />
  <text x="1149" y="238" class="tiny">System</text>
  <rect class="chip-accent" x="1208" y="222" width="66" height="24" />
  <text x="1228" y="238" class="tiny">Jira</text>
  <rect class="chip-good" x="1282" y="222" width="90" height="24" />
  <text x="1304" y="238" class="tiny">Healthy</text>
  <rect class="button-primary" x="1596" y="220" width="104" height="28" />
  <text x="1620" y="238" class="tiny" fill="#ffffff">Sync now</text>
  <rect class="button" x="1596" y="258" width="104" height="28" />
  <text x="1614" y="276" class="tiny">Settings</text>
  <text x="956" y="286" class="tiny">Header carries owner context, provider, sync health, and board-specific actions.</text>

  <rect class="input" x="934" y="322" width="130" height="32" />
  <text x="950" y="343" class="text">Initiative filter</text>
  <rect class="input" x="1076" y="322" width="120" height="32" />
  <text x="1092" y="343" class="text">Feature filter</text>
  <rect class="input" x="1208" y="322" width="120" height="32" />
  <text x="1224" y="343" class="text">Assignee</text>
  <rect class="input" x="1340" y="322" width="120" height="32" />
  <text x="1356" y="343" class="text">PM status</text>
  <rect class="input" x="1472" y="322" width="254" height="32" />
  <text x="1488" y="343" class="text">Search title / feature / external ref</text>

  <rect class="column" x="934" y="374" width="148" height="560" />
  <text x="952" y="402" class="label">Backlog</text>
  <rect class="chip" x="1000" y="386" width="58" height="20" />
  <text x="1018" y="400" class="tiny">Todo</text>
  <text x="952" y="422" class="tiny">7 cards</text>
  <rect class="card" x="946" y="438" width="124" height="88" />
  <text x="956" y="458" class="tiny">REQ-14</text>
  <text x="956" y="476" class="text">SAML setup guide</text>
  <text x="956" y="494" class="tiny">Feature: Access control</text>
  <text x="956" y="512" class="tiny">PM status: TODO</text>
  <rect class="card" x="946" y="536" width="124" height="88" />
  <text x="956" y="556" class="tiny">REQ-21</text>
  <text x="956" y="574" class="text">Mail relay config</text>
  <text x="956" y="592" class="tiny">Feature: Operations</text>
  <text x="956" y="610" class="tiny">PM status: TODO</text>

  <rect class="column" x="1094" y="374" width="148" height="560" />
  <text x="1112" y="402" class="label">Ready</text>
  <rect class="chip" x="1152" y="386" width="58" height="20" />
  <text x="1170" y="400" class="tiny">Todo</text>
  <text x="1112" y="422" class="tiny">4 cards</text>
  <rect class="card" x="1106" y="438" width="124" height="88" />
  <text x="1116" y="458" class="tiny">REQ-18</text>
  <text x="1116" y="476" class="text">SPF policy review</text>
  <text x="1116" y="494" class="tiny">Feature: Security</text>
  <text x="1116" y="512" class="tiny">PM status: TODO</text>

  <rect class="column" x="1254" y="374" width="148" height="560" />
  <text x="1272" y="402" class="label">In Progress</text>
  <rect class="chip-accent" x="1332" y="386" width="58" height="20" />
  <text x="1342" y="400" class="tiny">In prog</text>
  <text x="1272" y="422" class="tiny">6 cards</text>
  <rect class="card" x="1266" y="438" width="124" height="94" />
  <text x="1276" y="458" class="tiny">REQ-22</text>
  <text x="1276" y="476" class="text">Tenant migration</text>
  <text x="1276" y="494" class="tiny">Feature: Platform</text>
  <text x="1276" y="512" class="tiny">PM status: IN_PROGRESS</text>
  <text x="1276" y="530" class="tiny">Owner: IT Ops</text>
  <rect class="card" x="1266" y="542" width="124" height="94" />
  <text x="1276" y="562" class="tiny">REQ-26</text>
  <text x="1276" y="580" class="text">Alias cleanup</text>
  <text x="1276" y="598" class="tiny">Feature: Support</text>
  <text x="1276" y="616" class="tiny">PM status: IN_PROGRESS</text>
  <text x="1276" y="634" class="tiny">External: JIRA-801</text>

  <rect class="column" x="1414" y="374" width="148" height="560" />
  <text x="1432" y="402" class="label">QA / Review</text>
  <rect class="chip-accent" x="1492" y="386" width="58" height="20" />
  <text x="1502" y="400" class="tiny">In prog</text>
  <text x="1432" y="422" class="tiny">3 cards</text>
  <rect class="card" x="1426" y="438" width="124" height="94" />
  <text x="1436" y="458" class="tiny">REQ-31</text>
  <text x="1436" y="476" class="text">Failover test</text>
  <text x="1436" y="494" class="tiny">Feature: Resilience</text>
  <text x="1436" y="512" class="tiny">PM status: IN_PROGRESS</text>
  <text x="1436" y="530" class="tiny">Column detail stays visible</text>

  <rect class="column" x="1574" y="374" width="148" height="560" />
  <text x="1592" y="402" class="label">Done</text>
  <rect class="chip-good" x="1640" y="386" width="58" height="20" />
  <text x="1660" y="400" class="tiny">Done</text>
  <text x="1592" y="422" class="tiny">8 cards</text>
  <rect class="card" x="1586" y="438" width="124" height="94" />
  <text x="1596" y="458" class="tiny">REQ-08</text>
  <text x="1596" y="476" class="text">DKIM rotation</text>
  <text x="1596" y="494" class="tiny">Feature: Security</text>
  <text x="1596" y="512" class="tiny">PM status: DONE</text>
  <text x="1596" y="530" class="tiny">External: JIRA-744</text>

  <rect class="card-alert" x="1574" y="948" width="148" height="34" />
  <text x="1586" y="969" class="tiny">Optional future: blocked can be a column mapping to IN_PROGRESS.</text>

  <rect class="note" x="934" y="944" width="628" height="40" />
  <text x="954" y="968" class="small">Column is the team workflow state. PM status remains coarse and visible on every column/card as a mapped rollup.</text>

  <rect class="page" x="50" y="840" width="820" height="760" />
  <text x="75" y="875" class="section">Panel C. Board Settings / Column Mapping</text>
  <text x="75" y="898" class="small">New screen. Needed because the board architecture depends on explicit column-to-status mapping.</text>

  <rect class="panel-soft" x="74" y="918" width="772" height="88" />
  <text x="96" y="946" class="label">Owner</text>
  <text x="96" y="968" class="text">System: Email Platform</text>
  <text x="280" y="946" class="label">Provider</text>
  <rect class="input" x="280" y="954" width="150" height="30" />
  <text x="296" y="974" class="text">Jira</text>
  <text x="470" y="946" class="label">Board name</text>
  <rect class="input" x="470" y="954" width="220" height="30" />
  <text x="486" y="974" class="text">Operations / Support</text>
  <rect class="button-primary" x="720" y="952" width="106" height="32" />
  <text x="744" y="972" class="tiny" fill="#ffffff">Reconnect</text>

  <text x="74" y="1036" class="label">Columns</text>
  <rect class="table-head" x="74" y="1050" width="772" height="40" />
  <text x="92" y="1075" class="label">Order</text>
  <text x="160" y="1075" class="label">Column name</text>
  <text x="370" y="1075" class="label">PM status</text>
  <text x="500" y="1075" class="label">Default</text>
  <text x="592" y="1075" class="label">External link</text>
  <text x="734" y="1075" class="label">Actions</text>

  <rect class="row" x="74" y="1090" width="772" height="46" />
  <text x="96" y="1118" class="text">1</text>
  <text x="160" y="1118" class="text">Backlog</text>
  <rect class="input" x="352" y="1100" width="116" height="26" />
  <text x="368" y="1118" class="tiny">TODO</text>
  <rect class="chip-good" x="496" y="1101" width="58" height="24" />
  <text x="512" y="1117" class="tiny">Yes</text>
  <text x="592" y="1118" class="tiny">Jira status group / Backlog column</text>
  <text x="734" y="1118" class="tiny">Edit</text>

  <rect class="row" x="74" y="1136" width="772" height="46" />
  <text x="96" y="1164" class="text">2</text>
  <text x="160" y="1164" class="text">Ready</text>
  <rect class="input" x="352" y="1146" width="116" height="26" />
  <text x="368" y="1164" class="tiny">TODO</text>
  <text x="592" y="1164" class="tiny">Status: Ready</text>
  <text x="734" y="1164" class="tiny">Edit</text>

  <rect class="row" x="74" y="1182" width="772" height="46" />
  <text x="96" y="1210" class="text">3</text>
  <text x="160" y="1210" class="text">In Progress</text>
  <rect class="input" x="352" y="1192" width="116" height="26" />
  <text x="362" y="1210" class="tiny">IN_PROGRESS</text>
  <text x="592" y="1210" class="tiny">Status: In progress</text>
  <text x="734" y="1210" class="tiny">Edit</text>

  <rect class="row" x="74" y="1228" width="772" height="46" />
  <text x="96" y="1256" class="text">4</text>
  <text x="160" y="1256" class="text">QA / Review</text>
  <rect class="input" x="352" y="1238" width="116" height="26" />
  <text x="362" y="1256" class="tiny">IN_PROGRESS</text>
  <text x="592" y="1256" class="tiny">Status: Review</text>
  <text x="734" y="1256" class="tiny">Edit</text>

  <rect class="row" x="74" y="1274" width="772" height="46" />
  <text x="96" y="1302" class="text">5</text>
  <text x="160" y="1302" class="text">Done</text>
  <rect class="input" x="352" y="1284" width="116" height="26" />
  <text x="370" y="1302" class="tiny">DONE</text>
  <text x="592" y="1302" class="tiny">Status: Done</text>
  <text x="734" y="1302" class="tiny">Edit</text>

  <rect class="button" x="74" y="1338" width="124" height="32" />
  <text x="95" y="1358" class="tiny">Add column</text>
  <rect class="button" x="210" y="1338" width="148" height="32" />
  <text x="228" y="1358" class="tiny">Import from provider</text>

  <rect class="note" x="74" y="1390" width="772" height="182" />
  <text x="94" y="1418" class="label">Validation rules shown in settings</text>
  <text x="94" y="1442" class="small">1. Every column must map to exactly one PM status.</text>
  <text x="94" y="1462" class="small">2. One column must be the default landing column for new requirements entering the board.</text>
  <text x="94" y="1482" class="small">3. Multiple columns can map to the same PM status.</text>
  <text x="94" y="1502" class="small">4. PM statuses remain the existing requirement status field semantically, even though board columns are new.</text>
  <text x="94" y="1522" class="small">5. Warning state if provider columns change and mapping becomes stale.</text>
  <text x="94" y="1542" class="small">6. Optional future control: allow an internal board without any external integration.</text>

  <path class="connector" d="M 870 470 C 910 470, 930 470, 970 470" />
  <path class="connector" d="M 1460 1000 C 1260 1040, 1120 1110, 870 1180" />
  <path class="connector" d="M 560 810 C 560 835, 560 850, 560 910" />

  <rect class="note" x="1340" y="1018" width="390" height="130" />
  <text x="1360" y="1046" class="label">Implementation notes captured by wireframe</text>
  <text x="1360" y="1070" class="small">1. Board belongs to Product or System, not globally.</text>
  <text x="1360" y="1090" class="small">2. Cards still show feature context to preserve planning hierarchy.</text>
  <text x="1360" y="1110" class="small">3. PM status is visible but secondary to the column.</text>
  <text x="1360" y="1130" class="small">4. Settings screen is mandatory because mapping is first-class, not hidden config.</text>
</svg>
